<svg width="375" height="225" viewBox="0 0 375 225" fill="none" xmlns="http://www.w3.org/2000/svg">
<rect width="375" height="225" fill="#E5E5E5"/>
<path fill-rule="evenodd" clip-rule="evenodd" d="M160.83 72.6261C170.285 69.4133 176.473 59.9131 187.999 59.9131C199.525 59.9131 205.712 69.4133 215.168 72.6261C224.624 75.8395 235.904 72.2757 244.733 79.1925C253.562 86.1092 251.762 97.1002 256.793 105.237C261.824 113.373 272.919 117.412 274.921 128.01C276.922 138.608 260.689 145.946 258.941 155.198C257.194 164.451 118.644 163.602 117.056 155.198C115.309 145.946 99.0756 138.608 101.077 128.01C103.079 117.412 114.174 113.373 119.205 105.237C124.236 97.1002 122.435 86.1092 131.265 79.1925C140.094 72.2757 151.374 75.8395 160.83 72.6261Z" fill="#7FD7C3"/>
<path fill-rule="evenodd" clip-rule="evenodd" d="M159.894 69.8681C155.396 71.3962 150.457 71.2581 145.6 71.6153C139.928 72.0317 134.372 73.0571 129.468 76.8992C124.503 80.789 122.445 85.7748 121.002 90.9811C119.794 95.3437 119.097 99.8717 116.727 103.705C114.348 107.552 110.489 110.385 107.035 113.554C102.925 117.326 99.3399 121.508 98.214 127.471C97.0452 133.657 100.829 139.06 105.531 144.099C107.495 146.204 109.578 148.265 111.272 150.368C112.682 152.118 113.839 153.863 114.193 155.741C114.346 156.55 114.779 157.412 115.699 158.177C116.574 158.905 118.23 159.684 120.631 160.312C131.243 163.089 159.579 164.65 187.931 164.735C216.305 164.822 244.688 163.423 255.362 160.486C257.791 159.817 259.467 158.979 260.362 158.182C261.224 157.415 261.651 156.563 261.806 155.741C262.161 153.863 263.318 152.118 264.727 150.368C266.422 148.265 268.505 146.204 270.469 144.099C275.171 139.06 278.954 133.657 277.786 127.471C276.66 121.508 273.076 117.326 268.965 113.554C265.511 110.385 261.652 107.552 259.273 103.705C256.903 99.8717 256.206 95.3437 254.998 90.9811C253.556 85.7748 251.497 80.789 246.532 76.8992C241.627 73.0571 236.073 72.0317 230.4 71.6153C225.543 71.2581 220.604 71.3962 216.107 69.8681C211.618 68.3427 207.935 65.2762 203.976 62.6404C199.346 59.5569 194.4 57 188 57C181.6 57 176.654 59.5569 172.023 62.6404C168.065 65.2762 164.382 68.3427 159.894 69.8681ZM160.831 72.6277C170.287 69.415 176.474 59.9148 188 59.9148C199.526 59.9148 205.714 69.415 215.169 72.6277C224.625 75.8412 235.905 72.2773 244.734 79.1941C253.564 86.1109 251.763 97.1018 256.794 105.239C261.825 113.375 272.92 117.414 274.922 128.012C276.923 138.609 260.69 145.948 258.943 155.2C257.195 164.452 118.645 163.603 117.058 155.2C115.31 145.948 99.0769 138.609 101.078 128.012C103.08 117.414 114.175 113.375 119.206 105.239C124.237 97.1018 122.436 86.1109 131.266 79.1941C140.095 72.2773 151.375 75.8412 160.831 72.6277Z" fill="#383A47"/>
<path d="M151.747 128.389C163.123 128.389 172.344 119.167 172.344 107.791C172.344 96.4156 163.123 87.1938 151.747 87.1938C140.371 87.1938 131.15 96.4156 131.15 107.791C131.15 119.167 140.371 128.389 151.747 128.389Z" fill="#E06E9C"/>
<path fill-rule="evenodd" clip-rule="evenodd" d="M151.749 84.2804C138.772 84.2804 128.236 94.8159 128.236 107.793C128.236 120.77 138.772 131.305 151.749 131.305C164.725 131.305 175.261 120.77 175.261 107.793C175.261 94.8159 164.725 84.2804 151.749 84.2804ZM151.749 87.1955C163.117 87.1955 172.346 96.4249 172.346 107.793C172.346 119.161 163.117 128.39 151.749 128.39C140.381 128.39 131.151 119.161 131.151 107.793C131.151 96.4249 140.381 87.1955 151.749 87.1955Z" fill="#383A47"/>
<path d="M204.378 121.757C215.753 121.757 224.975 112.535 224.975 101.16C224.975 89.784 215.753 80.5623 204.378 80.5623C193.002 80.5623 183.78 89.784 183.78 101.16C183.78 112.535 193.002 121.757 204.378 121.757Z" fill="#F3F6E7"/>
<path fill-rule="evenodd" clip-rule="evenodd" d="M204.379 77.6492C191.403 77.6492 180.867 88.1846 180.867 101.162C180.867 114.138 191.403 124.674 204.379 124.674C217.356 124.674 227.891 114.138 227.891 101.162C227.891 88.1846 217.356 77.6492 204.379 77.6492ZM204.379 80.5642C215.747 80.5642 224.976 89.7936 224.976 101.162C224.976 112.529 215.747 121.759 204.379 121.759C193.011 121.759 183.782 112.529 183.782 101.162C183.782 89.7936 193.011 80.5642 204.379 80.5642Z" fill="#383A47"/>
<path d="M226.761 130.896C238.137 130.896 247.359 121.674 247.359 110.298C247.359 98.9227 238.137 89.7009 226.761 89.7009C215.386 89.7009 206.164 98.9227 206.164 110.298C206.164 121.674 215.386 130.896 226.761 130.896Z" fill="#EEBDD2"/>
<path fill-rule="evenodd" clip-rule="evenodd" d="M226.763 86.7877C213.786 86.7877 203.251 97.3232 203.251 110.3C203.251 123.277 213.786 133.812 226.763 133.812C239.739 133.812 250.275 123.277 250.275 110.3C250.275 97.3232 239.739 86.7877 226.763 86.7877ZM226.763 89.7028C238.131 89.7028 247.36 98.9322 247.36 110.3C247.36 121.668 238.131 130.897 226.763 130.897C215.395 130.897 206.165 121.668 206.165 110.3C206.165 98.9322 215.395 89.7028 226.763 89.7028Z" fill="#383A47"/>
<path fill-rule="evenodd" clip-rule="evenodd" d="M189.56 89.4443C255.578 89.4443 269.436 166.918 251.816 166.918H122.822C106.853 166.918 123.541 89.4443 189.56 89.4443Z" fill="#F6E258"/>
<path fill-rule="evenodd" clip-rule="evenodd" d="M189.56 86.5312C141.486 86.5312 118.57 126.037 114.838 149.732C113.798 156.331 114.287 161.789 115.887 165.107C117.388 168.219 119.786 169.835 122.822 169.835H251.816C254.974 169.835 257.516 168.268 259.267 165.335C261.256 162.002 262.155 156.533 261.518 149.907C259.235 126.158 237.742 86.5312 189.56 86.5312ZM189.56 89.4459C255.578 89.4459 269.436 166.92 251.816 166.92H122.822C106.853 166.92 123.541 89.4459 189.56 89.4459Z" fill="#383A47"/>
<path d="M120.484 144.45C121.148 144.45 121.686 143.912 121.686 143.248C121.686 142.585 121.148 142.047 120.484 142.047C119.821 142.047 119.283 142.585 119.283 143.248C119.283 143.912 119.821 144.45 120.484 144.45Z" fill="#383A47"/>
<path d="M120.484 139.043C121.148 139.043 121.686 138.505 121.686 137.842C121.686 137.178 121.148 136.64 120.484 136.64C119.821 136.64 119.283 137.178 119.283 137.842C119.283 138.505 119.821 139.043 120.484 139.043Z" fill="#383A47"/>
<path d="M120.484 149.842C121.148 149.842 121.686 149.304 121.686 148.64C121.686 147.977 121.148 147.439 120.484 147.439C119.821 147.439 119.283 147.977 119.283 148.64C119.283 149.304 119.821 149.842 120.484 149.842Z" fill="#383A47"/>
<path d="M120.484 155.234C121.148 155.234 121.686 154.696 121.686 154.032C121.686 153.368 121.148 152.831 120.484 152.831C119.821 152.831 119.283 153.368 119.283 154.032C119.283 154.696 119.821 155.234 120.484 155.234Z" fill="#383A47"/>
<path d="M120.484 160.633C121.148 160.633 121.686 160.095 121.686 159.431C121.686 158.768 121.148 158.23 120.484 158.23C119.821 158.23 119.283 158.768 119.283 159.431C119.283 160.095 119.821 160.633 120.484 160.633Z" fill="#383A47"/>
<path d="M120.484 166.032C121.148 166.032 121.686 165.494 121.686 164.83C121.686 164.167 121.148 163.629 120.484 163.629C119.821 163.629 119.283 164.167 119.283 164.83C119.283 165.494 119.821 166.032 120.484 166.032Z" fill="#383A47"/>
<path d="M255.519 144.45C256.183 144.45 256.721 143.912 256.721 143.248C256.721 142.585 256.183 142.047 255.519 142.047C254.856 142.047 254.318 142.585 254.318 143.248C254.318 143.912 254.856 144.45 255.519 144.45Z" fill="#383A47"/>
<path d="M255.519 139.043C256.183 139.043 256.721 138.505 256.721 137.842C256.721 137.178 256.183 136.64 255.519 136.64C254.856 136.64 254.318 137.178 254.318 137.842C254.318 138.505 254.856 139.043 255.519 139.043Z" fill="#383A47"/>
<path d="M255.519 149.842C256.183 149.842 256.721 149.304 256.721 148.64C256.721 147.977 256.183 147.439 255.519 147.439C254.856 147.439 254.318 147.977 254.318 148.64C254.318 149.304 254.856 149.842 255.519 149.842Z" fill="#383A47"/>
<path d="M255.519 155.234C256.183 155.234 256.721 154.696 256.721 154.032C256.721 153.368 256.183 152.831 255.519 152.831C254.856 152.831 254.318 153.368 254.318 154.032C254.318 154.696 254.856 155.234 255.519 155.234Z" fill="#383A47"/>
<path d="M255.519 160.633C256.183 160.633 256.721 160.095 256.721 159.431C256.721 158.768 256.183 158.23 255.519 158.23C254.856 158.23 254.318 158.768 254.318 159.431C254.318 160.095 254.856 160.633 255.519 160.633Z" fill="#383A47"/>
<path d="M255.519 166.032C256.183 166.032 256.721 165.494 256.721 164.83C256.721 164.167 256.183 163.629 255.519 163.629C254.856 163.629 254.318 164.167 254.318 164.83C254.318 165.494 254.856 166.032 255.519 166.032Z" fill="#383A47"/>
<path d="M125.901 144.45C126.565 144.45 127.103 143.912 127.103 143.248C127.103 142.585 126.565 142.047 125.901 142.047C125.238 142.047 124.7 142.585 124.7 143.248C124.7 143.912 125.238 144.45 125.901 144.45Z" fill="#383A47"/>
<path d="M125.901 149.842C126.565 149.842 127.103 149.304 127.103 148.64C127.103 147.977 126.565 147.439 125.901 147.439C125.238 147.439 124.7 147.977 124.7 148.64C124.7 149.304 125.238 149.842 125.901 149.842Z" fill="#383A47"/>
<path d="M125.901 155.241C126.565 155.241 127.103 154.703 127.103 154.039C127.103 153.376 126.565 152.838 125.901 152.838C125.238 152.838 124.7 153.376 124.7 154.039C124.7 154.703 125.238 155.241 125.901 155.241Z" fill="#383A47"/>
<path d="M125.901 160.633C126.565 160.633 127.103 160.095 127.103 159.431C127.103 158.768 126.565 158.23 125.901 158.23C125.238 158.23 124.7 158.768 124.7 159.431C124.7 160.095 125.238 160.633 125.901 160.633Z" fill="#383A47"/>
<path d="M125.901 166.032C126.565 166.032 127.103 165.494 127.103 164.83C127.103 164.167 126.565 163.629 125.901 163.629C125.238 163.629 124.7 164.167 124.7 164.83C124.7 165.494 125.238 166.032 125.901 166.032Z" fill="#383A47"/>
<path d="M131.322 149.842C131.985 149.842 132.523 149.304 132.523 148.64C132.523 147.977 131.985 147.439 131.322 147.439C130.658 147.439 130.12 147.977 130.12 148.64C130.12 149.304 130.658 149.842 131.322 149.842Z" fill="#383A47"/>
<path d="M131.322 155.235C131.985 155.235 132.523 154.697 132.523 154.033C132.523 153.37 131.985 152.832 131.322 152.832C130.658 152.832 130.12 153.37 130.12 154.033C130.12 154.697 130.658 155.235 131.322 155.235Z" fill="#383A47"/>
<path d="M131.322 160.633C131.985 160.633 132.523 160.095 132.523 159.431C132.523 158.768 131.985 158.23 131.322 158.23C130.658 158.23 130.12 158.768 130.12 159.431C130.12 160.095 130.658 160.633 131.322 160.633Z" fill="#383A47"/>
<path d="M131.322 166.025C131.985 166.025 132.523 165.487 132.523 164.823C132.523 164.16 131.985 163.622 131.322 163.622C130.658 163.622 130.12 164.16 130.12 164.823C130.12 165.487 130.658 166.025 131.322 166.025Z" fill="#383A47"/>
<path d="M250.213 144.45C250.876 144.45 251.414 143.912 251.414 143.248C251.414 142.585 250.876 142.047 250.213 142.047C249.549 142.047 249.011 142.585 249.011 143.248C249.011 143.912 249.549 144.45 250.213 144.45Z" fill="#383A47"/>
<path d="M250.213 149.842C250.876 149.842 251.414 149.304 251.414 148.64C251.414 147.977 250.876 147.439 250.213 147.439C249.549 147.439 249.011 147.977 249.011 148.64C249.011 149.304 249.549 149.842 250.213 149.842Z" fill="#383A47"/>
<path d="M250.213 155.241C250.876 155.241 251.414 154.703 251.414 154.039C251.414 153.376 250.876 152.838 250.213 152.838C249.549 152.838 249.011 153.376 249.011 154.039C249.011 154.703 249.549 155.241 250.213 155.241Z" fill="#383A47"/>
<path d="M250.213 160.633C250.876 160.633 251.414 160.095 251.414 159.431C251.414 158.768 250.876 158.23 250.213 158.23C249.549 158.23 249.011 158.768 249.011 159.431C249.011 160.095 249.549 160.633 250.213 160.633Z" fill="#383A47"/>
<path d="M250.213 166.032C250.876 166.032 251.414 165.494 251.414 164.83C251.414 164.167 250.876 163.629 250.213 163.629C249.549 163.629 249.011 164.167 249.011 164.83C249.011 165.494 249.549 166.032 250.213 166.032Z" fill="#383A47"/>
<path d="M244.589 149.842C245.253 149.842 245.791 149.304 245.791 148.64C245.791 147.977 245.253 147.439 244.589 147.439C243.926 147.439 243.388 147.977 243.388 148.64C243.388 149.304 243.926 149.842 244.589 149.842Z" fill="#383A47"/>
<path d="M244.589 155.235C245.253 155.235 245.791 154.697 245.791 154.033C245.791 153.37 245.253 152.832 244.589 152.832C243.926 152.832 243.388 153.37 243.388 154.033C243.388 154.697 243.926 155.235 244.589 155.235Z" fill="#383A47"/>
<path d="M244.589 160.633C245.253 160.633 245.791 160.095 245.791 159.431C245.791 158.768 245.253 158.23 244.589 158.23C243.926 158.23 243.388 158.768 243.388 159.431C243.388 160.095 243.926 160.633 244.589 160.633Z" fill="#383A47"/>
<path d="M244.589 166.025C245.253 166.025 245.791 165.487 245.791 164.823C245.791 164.16 245.253 163.622 244.589 163.622C243.926 163.622 243.388 164.16 243.388 164.823C243.388 165.487 243.926 166.025 244.589 166.025Z" fill="#383A47"/>
<path d="M136.739 155.241C137.402 155.241 137.94 154.703 137.94 154.039C137.94 153.376 137.402 152.838 136.739 152.838C136.075 152.838 135.537 153.376 135.537 154.039C135.537 154.703 136.075 155.241 136.739 155.241Z" fill="#383A47"/>
<path d="M136.739 160.64C137.402 160.64 137.94 160.102 137.94 159.438C137.94 158.775 137.402 158.237 136.739 158.237C136.075 158.237 135.537 158.775 135.537 159.438C135.537 160.102 136.075 160.64 136.739 160.64Z" fill="#383A47"/>
<path d="M136.739 166.032C137.402 166.032 137.94 165.494 137.94 164.83C137.94 164.167 137.402 163.629 136.739 163.629C136.075 163.629 135.537 164.167 135.537 164.83C135.537 165.494 136.075 166.032 136.739 166.032Z" fill="#383A47"/>
<path d="M142.131 155.241C142.794 155.241 143.332 154.703 143.332 154.039C143.332 153.376 142.794 152.838 142.131 152.838C141.467 152.838 140.929 153.376 140.929 154.039C140.929 154.703 141.467 155.241 142.131 155.241Z" fill="#383A47"/>
<path d="M142.131 160.64C142.794 160.64 143.332 160.102 143.332 159.438C143.332 158.775 142.794 158.237 142.131 158.237C141.467 158.237 140.929 158.775 140.929 159.438C140.929 160.102 141.467 160.64 142.131 160.64Z" fill="#383A47"/>
<path d="M142.131 166.032C142.794 166.032 143.332 165.494 143.332 164.83C143.332 164.167 142.794 163.629 142.131 163.629C141.467 163.629 140.929 164.167 140.929 164.83C140.929 165.494 141.467 166.032 142.131 166.032Z" fill="#383A47"/>
<path d="M147.526 155.241C148.19 155.241 148.728 154.703 148.728 154.039C148.728 153.376 148.19 152.838 147.526 152.838C146.863 152.838 146.325 153.376 146.325 154.039C146.325 154.703 146.863 155.241 147.526 155.241Z" fill="#383A47"/>
<path d="M147.526 160.64C148.19 160.64 148.728 160.102 148.728 159.438C148.728 158.775 148.19 158.237 147.526 158.237C146.863 158.237 146.325 158.775 146.325 159.438C146.325 160.102 146.863 160.64 147.526 160.64Z" fill="#383A47"/>
<path d="M147.526 166.032C148.19 166.032 148.728 165.494 148.728 164.83C148.728 164.167 148.19 163.629 147.526 163.629C146.863 163.629 146.325 164.167 146.325 164.83C146.325 165.494 146.863 166.032 147.526 166.032Z" fill="#383A47"/>
<path d="M152.918 155.241C153.582 155.241 154.12 154.703 154.12 154.039C154.12 153.376 153.582 152.838 152.918 152.838C152.255 152.838 151.717 153.376 151.717 154.039C151.717 154.703 152.255 155.241 152.918 155.241Z" fill="#383A47"/>
<path d="M152.918 160.64C153.582 160.64 154.12 160.102 154.12 159.438C154.12 158.775 153.582 158.237 152.918 158.237C152.255 158.237 151.717 158.775 151.717 159.438C151.717 160.102 152.255 160.64 152.918 160.64Z" fill="#383A47"/>
<path d="M152.918 166.032C153.582 166.032 154.12 165.494 154.12 164.83C154.12 164.167 153.582 163.629 152.918 163.629C152.255 163.629 151.717 164.167 151.717 164.83C151.717 165.494 152.255 166.032 152.918 166.032Z" fill="#383A47"/>
<path d="M158.31 155.241C158.974 155.241 159.512 154.703 159.512 154.039C159.512 153.376 158.974 152.838 158.31 152.838C157.647 152.838 157.109 153.376 157.109 154.039C157.109 154.703 157.647 155.241 158.31 155.241Z" fill="#383A47"/>
<path d="M158.31 160.64C158.974 160.64 159.512 160.102 159.512 159.438C159.512 158.775 158.974 158.237 158.31 158.237C157.647 158.237 157.109 158.775 157.109 159.438C157.109 160.102 157.647 160.64 158.31 160.64Z" fill="#383A47"/>
<path d="M158.31 166.032C158.974 166.032 159.512 165.494 159.512 164.83C159.512 164.167 158.974 163.629 158.31 163.629C157.647 163.629 157.109 164.167 157.109 164.83C157.109 165.494 157.647 166.032 158.31 166.032Z" fill="#383A47"/>
<path d="M163.702 155.241C164.366 155.241 164.904 154.703 164.904 154.039C164.904 153.376 164.366 152.838 163.702 152.838C163.039 152.838 162.501 153.376 162.501 154.039C162.501 154.703 163.039 155.241 163.702 155.241Z" fill="#383A47"/>
<path d="M163.702 160.64C164.366 160.64 164.904 160.102 164.904 159.438C164.904 158.775 164.366 158.237 163.702 158.237C163.039 158.237 162.501 158.775 162.501 159.438C162.501 160.102 163.039 160.64 163.702 160.64Z" fill="#383A47"/>
<path d="M163.702 166.032C164.366 166.032 164.904 165.494 164.904 164.83C164.904 164.167 164.366 163.629 163.702 163.629C163.039 163.629 162.501 164.167 162.501 164.83C162.501 165.494 163.039 166.032 163.702 166.032Z" fill="#383A47"/>
<path d="M169.098 155.241C169.761 155.241 170.299 154.703 170.299 154.039C170.299 153.376 169.761 152.838 169.098 152.838C168.434 152.838 167.896 153.376 167.896 154.039C167.896 154.703 168.434 155.241 169.098 155.241Z" fill="#383A47"/>
<path d="M169.098 160.64C169.761 160.64 170.299 160.102 170.299 159.438C170.299 158.775 169.761 158.237 169.098 158.237C168.434 158.237 167.896 158.775 167.896 159.438C167.896 160.102 168.434 160.64 169.098 160.64Z" fill="#383A47"/>
<path d="M169.098 166.032C169.761 166.032 170.299 165.494 170.299 164.83C170.299 164.167 169.761 163.629 169.098 163.629C168.434 163.629 167.896 164.167 167.896 164.83C167.896 165.494 168.434 166.032 169.098 166.032Z" fill="#383A47"/>
<path d="M174.49 155.241C175.153 155.241 175.691 154.703 175.691 154.039C175.691 153.376 175.153 152.838 174.49 152.838C173.826 152.838 173.288 153.376 173.288 154.039C173.288 154.703 173.826 155.241 174.49 155.241Z" fill="#383A47"/>
<path d="M174.49 160.64C175.153 160.64 175.691 160.102 175.691 159.438C175.691 158.775 175.153 158.237 174.49 158.237C173.826 158.237 173.288 158.775 173.288 159.438C173.288 160.102 173.826 160.64 174.49 160.64Z" fill="#383A47"/>
<path d="M174.49 166.032C175.153 166.032 175.691 165.494 175.691 164.83C175.691 164.167 175.153 163.629 174.49 163.629C173.826 163.629 173.288 164.167 173.288 164.83C173.288 165.494 173.826 166.032 174.49 166.032Z" fill="#383A47"/>
<path d="M179.882 155.241C180.545 155.241 181.083 154.703 181.083 154.039C181.083 153.376 180.545 152.838 179.882 152.838C179.218 152.838 178.68 153.376 178.68 154.039C178.68 154.703 179.218 155.241 179.882 155.241Z" fill="#383A47"/>
<path d="M179.882 160.64C180.545 160.64 181.083 160.102 181.083 159.438C181.083 158.775 180.545 158.237 179.882 158.237C179.218 158.237 178.68 158.775 178.68 159.438C178.68 160.102 179.218 160.64 179.882 160.64Z" fill="#383A47"/>
<path d="M179.882 166.032C180.545 166.032 181.083 165.494 181.083 164.83C181.083 164.167 180.545 163.629 179.882 163.629C179.218 163.629 178.68 164.167 178.68 164.83C178.68 165.494 179.218 166.032 179.882 166.032Z" fill="#383A47"/>
<path d="M185.274 155.241C185.937 155.241 186.475 154.703 186.475 154.039C186.475 153.376 185.937 152.838 185.274 152.838C184.61 152.838 184.072 153.376 184.072 154.039C184.072 154.703 184.61 155.241 185.274 155.241Z" fill="#383A47"/>
<path d="M185.274 160.64C185.937 160.64 186.475 160.102 186.475 159.438C186.475 158.775 185.937 158.237 185.274 158.237C184.61 158.237 184.072 158.775 184.072 159.438C184.072 160.102 184.61 160.64 185.274 160.64Z" fill="#383A47"/>
<path d="M185.274 166.032C185.937 166.032 186.475 165.494 186.475 164.83C186.475 164.167 185.937 163.629 185.274 163.629C184.61 163.629 184.072 164.167 184.072 164.83C184.072 165.494 184.61 166.032 185.274 166.032Z" fill="#383A47"/>
<path d="M190.669 155.241C191.333 155.241 191.871 154.703 191.871 154.039C191.871 153.376 191.333 152.838 190.669 152.838C190.006 152.838 189.468 153.376 189.468 154.039C189.468 154.703 190.006 155.241 190.669 155.241Z" fill="#383A47"/>
<path d="M190.669 160.64C191.333 160.64 191.871 160.102 191.871 159.438C191.871 158.775 191.333 158.237 190.669 158.237C190.006 158.237 189.468 158.775 189.468 159.438C189.468 160.102 190.006 160.64 190.669 160.64Z" fill="#383A47"/>
<path d="M190.669 166.032C191.333 166.032 191.871 165.494 191.871 164.83C191.871 164.167 191.333 163.629 190.669 163.629C190.006 163.629 189.468 164.167 189.468 164.83C189.468 165.494 190.006 166.032 190.669 166.032Z" fill="#383A47"/>
<path d="M196.061 155.241C196.725 155.241 197.263 154.703 197.263 154.039C197.263 153.376 196.725 152.838 196.061 152.838C195.398 152.838 194.86 153.376 194.86 154.039C194.86 154.703 195.398 155.241 196.061 155.241Z" fill="#383A47"/>
<path d="M196.061 160.64C196.725 160.64 197.263 160.102 197.263 159.438C197.263 158.775 196.725 158.237 196.061 158.237C195.398 158.237 194.86 158.775 194.86 159.438C194.86 160.102 195.398 160.64 196.061 160.64Z" fill="#383A47"/>
<path d="M196.061 166.032C196.725 166.032 197.263 165.494 197.263 164.83C197.263 164.167 196.725 163.629 196.061 163.629C195.398 163.629 194.86 164.167 194.86 164.83C194.86 165.494 195.398 166.032 196.061 166.032Z" fill="#383A47"/>
<path d="M201.453 155.241C202.117 155.241 202.655 154.703 202.655 154.039C202.655 153.376 202.117 152.838 201.453 152.838C200.79 152.838 200.252 153.376 200.252 154.039C200.252 154.703 200.79 155.241 201.453 155.241Z" fill="#383A47"/>
<path d="M201.453 160.64C202.117 160.64 202.655 160.102 202.655 159.438C202.655 158.775 202.117 158.237 201.453 158.237C200.79 158.237 200.252 158.775 200.252 159.438C200.252 160.102 200.79 160.64 201.453 160.64Z" fill="#383A47"/>
<path d="M201.453 166.032C202.117 166.032 202.655 165.494 202.655 164.83C202.655 164.167 202.117 163.629 201.453 163.629C200.79 163.629 200.252 164.167 200.252 164.83C200.252 165.494 200.79 166.032 201.453 166.032Z" fill="#383A47"/>
<path d="M206.845 155.241C207.509 155.241 208.047 154.703 208.047 154.039C208.047 153.376 207.509 152.838 206.845 152.838C206.182 152.838 205.644 153.376 205.644 154.039C205.644 154.703 206.182 155.241 206.845 155.241Z" fill="#383A47"/>
<path d="M206.845 160.64C207.509 160.64 208.047 160.102 208.047 159.438C208.047 158.775 207.509 158.237 206.845 158.237C206.182 158.237 205.644 158.775 205.644 159.438C205.644 160.102 206.182 160.64 206.845 160.64Z" fill="#383A47"/>
<path d="M206.845 166.032C207.509 166.032 208.047 165.494 208.047 164.83C208.047 164.167 207.509 163.629 206.845 163.629C206.182 163.629 205.644 164.167 205.644 164.83C205.644 165.494 206.182 166.032 206.845 166.032Z" fill="#383A47"/>
<path d="M212.241 155.241C212.904 155.241 213.442 154.703 213.442 154.039C213.442 153.376 212.904 152.838 212.241 152.838C211.577 152.838 211.039 153.376 211.039 154.039C211.039 154.703 211.577 155.241 212.241 155.241Z" fill="#383A47"/>
<path d="M212.241 160.64C212.904 160.64 213.442 160.102 213.442 159.438C213.442 158.775 212.904 158.237 212.241 158.237C211.577 158.237 211.039 158.775 211.039 159.438C211.039 160.102 211.577 160.64 212.241 160.64Z" fill="#383A47"/>
<path d="M212.241 166.032C212.904 166.032 213.442 165.494 213.442 164.83C213.442 164.167 212.904 163.629 212.241 163.629C211.577 163.629 211.039 164.167 211.039 164.83C211.039 165.494 211.577 166.032 212.241 166.032Z" fill="#383A47"/>
<path d="M217.633 155.241C218.296 155.241 218.834 154.703 218.834 154.039C218.834 153.376 218.296 152.838 217.633 152.838C216.969 152.838 216.431 153.376 216.431 154.039C216.431 154.703 216.969 155.241 217.633 155.241Z" fill="#383A47"/>
<path d="M217.633 160.64C218.296 160.64 218.834 160.102 218.834 159.438C218.834 158.775 218.296 158.237 217.633 158.237C216.969 158.237 216.431 158.775 216.431 159.438C216.431 160.102 216.969 160.64 217.633 160.64Z" fill="#383A47"/>
<path d="M217.633 166.032C218.296 166.032 218.834 165.494 218.834 164.83C218.834 164.167 218.296 163.629 217.633 163.629C216.969 163.629 216.431 164.167 216.431 164.83C216.431 165.494 216.969 166.032 217.633 166.032Z" fill="#383A47"/>
<path d="M223.025 155.241C223.688 155.241 224.226 154.703 224.226 154.039C224.226 153.376 223.688 152.838 223.025 152.838C222.361 152.838 221.823 153.376 221.823 154.039C221.823 154.703 222.361 155.241 223.025 155.241Z" fill="#383A47"/>
<path d="M223.025 160.64C223.688 160.64 224.226 160.102 224.226 159.438C224.226 158.775 223.688 158.237 223.025 158.237C222.361 158.237 221.823 158.775 221.823 159.438C221.823 160.102 222.361 160.64 223.025 160.64Z" fill="#383A47"/>
<path d="M223.025 166.032C223.688 166.032 224.226 165.494 224.226 164.83C224.226 164.167 223.688 163.629 223.025 163.629C222.361 163.629 221.823 164.167 221.823 164.83C221.823 165.494 222.361 166.032 223.025 166.032Z" fill="#383A47"/>
<path d="M228.417 155.241C229.08 155.241 229.618 154.703 229.618 154.039C229.618 153.376 229.08 152.838 228.417 152.838C227.753 152.838 227.215 153.376 227.215 154.039C227.215 154.703 227.753 155.241 228.417 155.241Z" fill="#383A47"/>
<path d="M228.417 160.64C229.08 160.64 229.618 160.102 229.618 159.438C229.618 158.775 229.08 158.237 228.417 158.237C227.753 158.237 227.215 158.775 227.215 159.438C227.215 160.102 227.753 160.64 228.417 160.64Z" fill="#383A47"/>
<path d="M228.417 166.032C229.08 166.032 229.618 165.494 229.618 164.83C229.618 164.167 229.08 163.629 228.417 163.629C227.753 163.629 227.215 164.167 227.215 164.83C227.215 165.494 227.753 166.032 228.417 166.032Z" fill="#383A47"/>
<path d="M233.812 155.241C234.476 155.241 235.014 154.703 235.014 154.039C235.014 153.376 234.476 152.838 233.812 152.838C233.149 152.838 232.611 153.376 232.611 154.039C232.611 154.703 233.149 155.241 233.812 155.241Z" fill="#383A47"/>
<path d="M233.812 160.64C234.476 160.64 235.014 160.102 235.014 159.438C235.014 158.775 234.476 158.237 233.812 158.237C233.149 158.237 232.611 158.775 232.611 159.438C232.611 160.102 233.149 160.64 233.812 160.64Z" fill="#383A47"/>
<path d="M233.812 166.032C234.476 166.032 235.014 165.494 235.014 164.83C235.014 164.167 234.476 163.629 233.812 163.629C233.149 163.629 232.611 164.167 232.611 164.83C232.611 165.494 233.149 166.032 233.812 166.032Z" fill="#383A47"/>
<path d="M239.204 155.241C239.868 155.241 240.406 154.703 240.406 154.039C240.406 153.376 239.868 152.838 239.204 152.838C238.541 152.838 238.003 153.376 238.003 154.039C238.003 154.703 238.541 155.241 239.204 155.241Z" fill="#383A47"/>
<path d="M239.204 160.64C239.868 160.64 240.406 160.102 240.406 159.438C240.406 158.775 239.868 158.237 239.204 158.237C238.541 158.237 238.003 158.775 238.003 159.438C238.003 160.102 238.541 160.64 239.204 160.64Z" fill="#383A47"/>
<path d="M239.204 166.032C239.868 166.032 240.406 165.494 240.406 164.83C240.406 164.167 239.868 163.629 239.204 163.629C238.541 163.629 238.003 164.167 238.003 164.83C238.003 165.494 238.541 166.032 239.204 166.032Z" fill="#383A47"/>
<path d="M164.804 118.368C169.902 118.368 174.034 114.236 174.034 109.138C174.034 104.04 169.902 99.908 164.804 99.908C159.706 99.908 155.574 104.04 155.574 109.138C155.574 114.236 159.706 118.368 164.804 118.368Z" fill="#383A47"/>
<path d="M162.541 111.897C165.228 111.897 167.406 109.719 167.406 107.031C167.406 104.344 165.228 102.166 162.541 102.166C159.854 102.166 157.675 104.344 157.675 107.031C157.675 109.719 159.854 111.897 162.541 111.897Z" fill="white"/>
<path d="M167.617 115.839C168.936 115.839 170.005 114.769 170.005 113.45C170.005 112.131 168.936 111.062 167.617 111.062C166.298 111.062 165.229 112.131 165.229 113.45C165.229 114.769 166.298 115.839 167.617 115.839Z" fill="white"/>
<path d="M211.195 118.368C216.293 118.368 220.425 114.236 220.425 109.138C220.425 104.04 216.293 99.908 211.195 99.908C206.097 99.908 201.965 104.04 201.965 109.138C201.965 114.236 206.097 118.368 211.195 118.368Z" fill="#383A47"/>
<path d="M208.932 111.897C211.619 111.897 213.797 109.719 213.797 107.031C213.797 104.344 211.619 102.166 208.932 102.166C206.245 102.166 204.066 104.344 204.066 107.031C204.066 109.719 206.245 111.897 208.932 111.897Z" fill="white"/>
<path d="M214.008 115.839C215.327 115.839 216.396 114.769 216.396 113.45C216.396 112.131 215.327 111.062 214.008 111.062C212.689 111.062 211.62 112.131 211.62 113.45C211.62 114.769 212.689 115.839 214.008 115.839Z" fill="white"/>
<path d="M212.095 127.904C214.392 127.904 216.253 126.043 216.253 123.746C216.253 121.45 214.392 119.588 212.095 119.588C209.799 119.588 207.937 121.45 207.937 123.746C207.937 126.043 209.799 127.904 212.095 127.904Z" fill="#EEBED3"/>
<path d="M164.119 127.904C166.416 127.904 168.277 126.043 168.277 123.746C168.277 121.45 166.416 119.588 164.119 119.588C161.823 119.588 159.962 121.45 159.962 123.746C159.962 126.043 161.823 127.904 164.119 127.904Z" fill="#EEBED3"/>
<path fill-rule="evenodd" clip-rule="evenodd" d="M171.773 128.87C170.162 128.87 168.858 130.175 168.858 131.784C168.858 142.098 177.686 150.509 187.999 150.509C198.311 150.509 207.14 142.098 207.14 131.784C207.14 130.175 205.835 128.87 204.225 128.87H171.773Z" fill="#383A47"/>
<path fill-rule="evenodd" clip-rule="evenodd" d="M173.059 137.888C172.233 136.01 171.771 133.947 171.771 131.783H204.224C204.224 133.947 203.762 136.01 202.936 137.888H173.059Z" fill="white"/>
</svg>
