<svg width="40" height="28" viewBox="0 0 40 28" fill="none" xmlns="http://www.w3.org/2000/svg">
<path d="M3 25H37V3H3V25ZM3 28C2.2 28 1.5 27.6917 0.9 27.075C0.3 26.4583 0 25.7667 0 25V3C0 2.2 0.3 1.5 0.9 0.9C1.5 0.3 2.2 0 3 0H37C37.8 0 38.5 0.3 39.1 0.9C39.7 1.5 40 2.2 40 3V25C40 25.7667 39.7 26.4583 39.1 27.075C38.5 27.6917 37.8 28 37 28H3ZM18.5 9.25H21.5V6.25H18.5V9.25ZM18.5 15.5H21.5V12.5H18.5V15.5ZM12.35 9.25H15.35V6.25H12.35V9.25ZM12.35 15.5H15.35V12.5H12.35V15.5ZM6.15 15.5H9.15V12.5H6.15V15.5ZM6.15 9.25H9.15V6.25H6.15V9.25ZM11 21.75H29V18.75H11V21.75ZM24.7 15.5H27.7V12.5H24.7V15.5ZM24.7 9.25H27.7V6.25H24.7V9.25ZM30.85 15.5H33.85V12.5H30.85V15.5ZM30.85 9.25H33.85V6.25H30.85V9.25ZM3 25V3V25Z" fill="#C4C4C4"/>
</svg>
