<svg width="130" height="82" viewBox="0 0 130 82" fill="none" xmlns="http://www.w3.org/2000/svg">
<path fill-rule="evenodd" clip-rule="evenodd" d="M45.3773 11.2855C52.2062 8.96514 56.675 2.10388 64.9991 2.10388C73.3233 2.10388 77.7922 8.96514 84.621 11.2855C91.4504 13.6063 99.5971 11.0324 105.974 16.0279C112.351 21.0233 111.05 28.9612 114.684 34.8377C118.317 40.7138 126.33 43.6311 127.776 51.285C129.221 58.9389 117.497 64.239 116.235 70.9209C114.973 77.6033 14.9093 76.99 13.763 70.9209C12.5009 64.239 0.776811 58.9389 2.22206 51.285C3.66783 43.6311 11.6809 40.7138 15.3145 34.8377C18.9482 28.9612 17.6477 21.0233 24.0244 16.0279C30.4012 11.0324 38.5479 13.6063 45.3773 11.2855Z" fill="#7FD7C3"/>
<path fill-rule="evenodd" clip-rule="evenodd" d="M44.7009 9.29363C41.4525 10.3973 37.8857 10.2975 34.3778 10.5555C30.281 10.8562 26.269 11.5968 22.7269 14.3716C19.1412 17.1809 17.6544 20.7818 16.6128 24.5419C15.7402 27.6927 15.237 30.9629 13.525 33.7314C11.8071 36.5097 9.01974 38.5558 6.52556 40.8447C3.55665 43.5685 0.967734 46.589 0.154586 50.8956C-0.689613 55.3633 2.04351 59.2654 5.43874 62.9046C6.85766 64.4255 8.36185 65.9139 9.58552 67.4323C10.6039 68.6961 11.4392 69.9565 11.695 71.3128C11.8055 71.897 12.1181 72.5201 12.7829 73.0724C13.4144 73.5977 14.6107 74.1604 16.3444 74.6139C24.009 76.6198 44.474 77.747 64.9501 77.8089C85.4425 77.8713 105.942 76.861 113.65 74.7397C115.405 74.2567 116.615 73.6513 117.262 73.0759C117.884 72.5216 118.193 71.9064 118.305 71.3128C118.561 69.9565 119.396 68.6961 120.414 67.4323C121.638 65.9139 123.143 64.4255 124.561 62.9046C127.957 59.2654 130.689 55.3633 129.846 50.8956C129.032 46.589 126.444 43.5685 123.475 40.8447C120.98 38.5558 118.193 36.5097 116.475 33.7314C114.763 30.9629 114.26 27.6927 113.387 24.5419C112.346 20.7818 110.859 17.1809 107.273 14.3716C103.731 11.5968 99.7191 10.8562 95.6223 10.5555C92.1145 10.2975 88.5477 10.3973 85.2993 9.29363C82.0578 8.19194 79.3973 5.97725 76.5384 4.07361C73.1942 1.84663 69.6221 0 65.0001 0C60.378 0 56.8055 1.84663 53.4613 4.07361C50.6024 5.97725 47.9424 8.19194 44.7009 9.29363ZM45.3782 11.2867C52.2071 8.96637 56.676 2.10511 65.0001 2.10511C73.3242 2.10511 77.7931 8.96637 84.6219 11.2867C91.4513 13.6075 99.5981 11.0336 105.975 16.0291C112.352 21.0246 111.051 28.9624 114.685 34.839C118.318 40.715 126.331 43.6324 127.777 51.2862C129.222 58.9401 117.498 64.2402 116.236 70.9221C114.974 77.6045 14.9102 76.9913 13.7639 70.9221C12.5018 64.2402 0.777733 58.9401 2.22298 51.2862C3.66875 43.6324 11.6818 40.715 15.3154 34.839C18.9491 28.9624 17.6486 21.0246 24.0253 16.0291C30.4021 11.0336 38.5488 13.6075 45.3782 11.2867Z" fill="#383A47"/>
<path d="M38.8174 51.5585C47.0331 51.5585 53.6933 44.8983 53.6933 36.6826C53.6933 28.4668 47.0331 21.8066 38.8174 21.8066C30.6016 21.8066 23.9415 28.4668 23.9415 36.6826C23.9415 44.8983 30.6016 51.5585 38.8174 51.5585Z" fill="#E06E9C"/>
<path fill-rule="evenodd" clip-rule="evenodd" d="M38.8184 19.7025C29.4464 19.7025 21.8375 27.3115 21.8375 36.6838C21.8375 46.0558 29.4464 53.6647 38.8184 53.6647C48.1904 53.6647 55.7994 46.0558 55.7994 36.6838C55.7994 27.3115 48.1904 19.7025 38.8184 19.7025ZM38.8184 21.8078C47.0287 21.8078 53.6941 28.4735 53.6941 36.6838C53.6941 44.8937 47.0287 51.5594 38.8184 51.5594C30.6082 51.5594 23.9425 44.8937 23.9425 36.6838C23.9425 28.4735 30.6082 21.8078 38.8184 21.8078Z" fill="#383A47"/>
<path d="M76.8283 46.7691C85.044 46.7691 91.7042 40.109 91.7042 31.8932C91.7042 23.6775 85.044 17.0173 76.8283 17.0173C68.6126 17.0173 61.9524 23.6775 61.9524 31.8932C61.9524 40.109 68.6126 46.7691 76.8283 46.7691Z" fill="#F3F6E7"/>
<path fill-rule="evenodd" clip-rule="evenodd" d="M76.8294 14.9132C67.4573 14.9132 59.8484 22.5222 59.8484 31.8945C59.8484 41.2665 67.4573 48.8754 76.8294 48.8754C86.2014 48.8754 93.8103 41.2665 93.8103 31.8945C93.8103 22.5222 86.2014 14.9132 76.8294 14.9132ZM76.8294 17.0185C85.0396 17.0185 91.705 23.6842 91.705 31.8945C91.705 40.1044 85.0396 46.7701 76.8294 46.7701C68.6191 46.7701 61.9534 40.1044 61.9534 31.8945C61.9534 23.6842 68.6191 17.0185 76.8294 17.0185Z" fill="#383A47"/>
<path d="M92.9942 53.369C101.21 53.369 107.87 46.7088 107.87 38.4931C107.87 30.2774 101.21 23.6172 92.9942 23.6172C84.7785 23.6172 78.1183 30.2774 78.1183 38.4931C78.1183 46.7088 84.7785 53.369 92.9942 53.369Z" fill="#EEBDD2"/>
<path fill-rule="evenodd" clip-rule="evenodd" d="M92.9952 21.5133C83.6232 21.5133 76.0143 29.1223 76.0143 38.4946C76.0143 47.8666 83.6232 55.4755 92.9952 55.4755C102.367 55.4755 109.976 47.8666 109.976 38.4946C109.976 29.1223 102.367 21.5133 92.9952 21.5133ZM92.9952 23.6186C101.205 23.6186 107.871 30.2843 107.871 38.4946C107.871 46.7045 101.205 53.3702 92.9952 53.3702C84.785 53.3702 78.1193 46.7045 78.1193 38.4946C78.1193 30.2843 84.785 23.6186 92.9952 23.6186Z" fill="#383A47"/>
<path fill-rule="evenodd" clip-rule="evenodd" d="M66.1264 23.432C113.807 23.432 123.815 79.3853 111.089 79.3853H17.927C6.3938 79.3853 18.4462 23.432 66.1264 23.432Z" fill="#F6E258"/>
<path fill-rule="evenodd" clip-rule="evenodd" d="M66.1263 21.3281C31.4062 21.3281 14.8563 49.8604 12.1607 66.9732C11.4099 71.7391 11.7628 75.6809 12.9187 78.0773C14.0025 80.3246 15.734 81.4919 17.927 81.4919H111.089C113.37 81.4919 115.206 80.36 116.47 78.2417C117.907 75.8351 118.557 71.8852 118.096 67.0992C116.448 49.9477 100.925 21.3281 66.1263 21.3281ZM66.1263 23.4332C113.807 23.4332 123.815 79.3865 111.089 79.3865H17.927C6.39377 79.3865 18.4461 23.4332 66.1263 23.4332Z" fill="#383A47"/>
<path d="M16.2388 63.158C16.7181 63.158 17.1066 62.7695 17.1066 62.2902C17.1066 61.811 16.7181 61.4225 16.2388 61.4225C15.7596 61.4225 15.3711 61.811 15.3711 62.2902C15.3711 62.7695 15.7596 63.158 16.2388 63.158Z" fill="#383A47"/>
<path d="M16.2388 59.2536C16.7181 59.2536 17.1066 58.865 17.1066 58.3858C17.1066 57.9066 16.7181 57.5181 16.2388 57.5181C15.7596 57.5181 15.3711 57.9066 15.3711 58.3858C15.3711 58.865 15.7596 59.2536 16.2388 59.2536Z" fill="#383A47"/>
<path d="M16.2388 67.0523C16.7181 67.0523 17.1066 66.6638 17.1066 66.1845C17.1066 65.7053 16.7181 65.3168 16.2388 65.3168C15.7596 65.3168 15.3711 65.7053 15.3711 66.1845C15.3711 66.6638 15.7596 67.0523 16.2388 67.0523Z" fill="#383A47"/>
<path d="M16.2388 70.9465C16.7181 70.9465 17.1066 70.558 17.1066 70.0788C17.1066 69.5996 16.7181 69.2111 16.2388 69.2111C15.7596 69.2111 15.3711 69.5996 15.3711 70.0788C15.3711 70.558 15.7596 70.9465 16.2388 70.9465Z" fill="#383A47"/>
<path d="M16.2388 74.8458C16.7181 74.8458 17.1066 74.4573 17.1066 73.9781C17.1066 73.4989 16.7181 73.1104 16.2388 73.1104C15.7596 73.1104 15.3711 73.4989 15.3711 73.9781C15.3711 74.4573 15.7596 74.8458 16.2388 74.8458Z" fill="#383A47"/>
<path d="M16.2388 78.7451C16.7181 78.7451 17.1066 78.3566 17.1066 77.8774C17.1066 77.3981 16.7181 77.0096 16.2388 77.0096C15.7596 77.0096 15.3711 77.3981 15.3711 77.8774C15.3711 78.3566 15.7596 78.7451 16.2388 78.7451Z" fill="#383A47"/>
<path d="M113.764 63.158C114.243 63.158 114.632 62.7695 114.632 62.2902C114.632 61.811 114.243 61.4225 113.764 61.4225C113.285 61.4225 112.896 61.811 112.896 62.2902C112.896 62.7695 113.285 63.158 113.764 63.158Z" fill="#383A47"/>
<path d="M113.764 59.2536C114.243 59.2536 114.632 58.865 114.632 58.3858C114.632 57.9066 114.243 57.5181 113.764 57.5181C113.285 57.5181 112.896 57.9066 112.896 58.3858C112.896 58.865 113.285 59.2536 113.764 59.2536Z" fill="#383A47"/>
<path d="M113.764 67.0523C114.243 67.0523 114.632 66.6638 114.632 66.1845C114.632 65.7053 114.243 65.3168 113.764 65.3168C113.285 65.3168 112.896 65.7053 112.896 66.1845C112.896 66.6638 113.285 67.0523 113.764 67.0523Z" fill="#383A47"/>
<path d="M113.764 70.9465C114.243 70.9465 114.632 70.558 114.632 70.0788C114.632 69.5996 114.243 69.2111 113.764 69.2111C113.285 69.2111 112.896 69.5996 112.896 70.0788C112.896 70.558 113.285 70.9465 113.764 70.9465Z" fill="#383A47"/>
<path d="M113.764 74.8458C114.243 74.8458 114.632 74.4573 114.632 73.9781C114.632 73.4989 114.243 73.1104 113.764 73.1104C113.285 73.1104 112.896 73.4989 112.896 73.9781C112.896 74.4573 113.285 74.8458 113.764 74.8458Z" fill="#383A47"/>
<path d="M113.764 78.7451C114.243 78.7451 114.632 78.3566 114.632 77.8774C114.632 77.3981 114.243 77.0096 113.764 77.0096C113.285 77.0096 112.896 77.3981 112.896 77.8774C112.896 78.3566 113.285 78.7451 113.764 78.7451Z" fill="#383A47"/>
<path d="M20.1511 63.158C20.6303 63.158 21.0188 62.7695 21.0188 62.2902C21.0188 61.811 20.6303 61.4225 20.1511 61.4225C19.6718 61.4225 19.2833 61.811 19.2833 62.2902C19.2833 62.7695 19.6718 63.158 20.1511 63.158Z" fill="#383A47"/>
<path d="M20.1511 67.0523C20.6303 67.0523 21.0188 66.6638 21.0188 66.1845C21.0188 65.7053 20.6303 65.3168 20.1511 65.3168C19.6718 65.3168 19.2833 65.7053 19.2833 66.1845C19.2833 66.6638 19.6718 67.0523 20.1511 67.0523Z" fill="#383A47"/>
<path d="M20.1511 70.9515C20.6303 70.9515 21.0188 70.563 21.0188 70.0838C21.0188 69.6046 20.6303 69.2161 20.1511 69.2161C19.6718 69.2161 19.2833 69.6046 19.2833 70.0838C19.2833 70.563 19.6718 70.9515 20.1511 70.9515Z" fill="#383A47"/>
<path d="M20.1511 74.8458C20.6303 74.8458 21.0188 74.4573 21.0188 73.9781C21.0188 73.4989 20.6303 73.1104 20.1511 73.1104C19.6718 73.1104 19.2833 73.4989 19.2833 73.9781C19.2833 74.4573 19.6718 74.8458 20.1511 74.8458Z" fill="#383A47"/>
<path d="M20.1511 78.7451C20.6303 78.7451 21.0188 78.3566 21.0188 77.8774C21.0188 77.3981 20.6303 77.0096 20.1511 77.0096C19.6718 77.0096 19.2833 77.3981 19.2833 77.8774C19.2833 78.3566 19.6718 78.7451 20.1511 78.7451Z" fill="#383A47"/>
<path d="M24.0658 67.0523C24.545 67.0523 24.9335 66.6638 24.9335 66.1845C24.9335 65.7053 24.545 65.3168 24.0658 65.3168C23.5866 65.3168 23.1981 65.7053 23.1981 66.1845C23.1981 66.6638 23.5866 67.0523 24.0658 67.0523Z" fill="#383A47"/>
<path d="M24.0658 70.9473C24.545 70.9473 24.9335 70.5588 24.9335 70.0795C24.9335 69.6003 24.545 69.2118 24.0658 69.2118C23.5866 69.2118 23.1981 69.6003 23.1981 70.0795C23.1981 70.5588 23.5866 70.9473 24.0658 70.9473Z" fill="#383A47"/>
<path d="M24.0658 74.8458C24.545 74.8458 24.9335 74.4573 24.9335 73.9781C24.9335 73.4989 24.545 73.1104 24.0658 73.1104C23.5866 73.1104 23.1981 73.4989 23.1981 73.9781C23.1981 74.4573 23.5866 74.8458 24.0658 74.8458Z" fill="#383A47"/>
<path d="M24.0658 78.7401C24.545 78.7401 24.9335 78.3516 24.9335 77.8724C24.9335 77.3931 24.545 77.0046 24.0658 77.0046C23.5866 77.0046 23.1981 77.3931 23.1981 77.8724C23.1981 78.3516 23.5866 78.7401 24.0658 78.7401Z" fill="#383A47"/>
<path d="M109.931 63.158C110.411 63.158 110.799 62.7695 110.799 62.2902C110.799 61.811 110.411 61.4225 109.931 61.4225C109.452 61.4225 109.064 61.811 109.064 62.2902C109.064 62.7695 109.452 63.158 109.931 63.158Z" fill="#383A47"/>
<path d="M109.931 67.0523C110.411 67.0523 110.799 66.6638 110.799 66.1845C110.799 65.7053 110.411 65.3168 109.931 65.3168C109.452 65.3168 109.064 65.7053 109.064 66.1845C109.064 66.6638 109.452 67.0523 109.931 67.0523Z" fill="#383A47"/>
<path d="M109.931 70.9515C110.411 70.9515 110.799 70.563 110.799 70.0838C110.799 69.6046 110.411 69.2161 109.931 69.2161C109.452 69.2161 109.064 69.6046 109.064 70.0838C109.064 70.563 109.452 70.9515 109.931 70.9515Z" fill="#383A47"/>
<path d="M109.931 74.8458C110.411 74.8458 110.799 74.4573 110.799 73.9781C110.799 73.4989 110.411 73.1104 109.931 73.1104C109.452 73.1104 109.064 73.4989 109.064 73.9781C109.064 74.4573 109.452 74.8458 109.931 74.8458Z" fill="#383A47"/>
<path d="M109.931 78.7451C110.411 78.7451 110.799 78.3566 110.799 77.8774C110.799 77.3981 110.411 77.0096 109.931 77.0096C109.452 77.0096 109.064 77.3981 109.064 77.8774C109.064 78.3566 109.452 78.7451 109.931 78.7451Z" fill="#383A47"/>
<path d="M105.87 67.0523C106.349 67.0523 106.738 66.6638 106.738 66.1845C106.738 65.7053 106.349 65.3168 105.87 65.3168C105.391 65.3168 105.002 65.7053 105.002 66.1845C105.002 66.6638 105.391 67.0523 105.87 67.0523Z" fill="#383A47"/>
<path d="M105.87 70.9473C106.349 70.9473 106.738 70.5588 106.738 70.0795C106.738 69.6003 106.349 69.2118 105.87 69.2118C105.391 69.2118 105.002 69.6003 105.002 70.0795C105.002 70.5588 105.391 70.9473 105.87 70.9473Z" fill="#383A47"/>
<path d="M105.87 74.8458C106.349 74.8458 106.738 74.4573 106.738 73.9781C106.738 73.4989 106.349 73.1104 105.87 73.1104C105.391 73.1104 105.002 73.4989 105.002 73.9781C105.002 74.4573 105.391 74.8458 105.87 74.8458Z" fill="#383A47"/>
<path d="M105.87 78.7401C106.349 78.7401 106.738 78.3516 106.738 77.8724C106.738 77.3931 106.349 77.0046 105.87 77.0046C105.391 77.0046 105.002 77.3931 105.002 77.8724C105.002 78.3516 105.391 78.7401 105.87 78.7401Z" fill="#383A47"/>
<path d="M27.9781 70.9515C28.4573 70.9515 28.8458 70.563 28.8458 70.0838C28.8458 69.6046 28.4573 69.2161 27.9781 69.2161C27.4988 69.2161 27.1104 69.6046 27.1104 70.0838C27.1104 70.563 27.4988 70.9515 27.9781 70.9515Z" fill="#383A47"/>
<path d="M27.9781 74.851C28.4573 74.851 28.8458 74.4625 28.8458 73.9832C28.8458 73.504 28.4573 73.1155 27.9781 73.1155C27.4988 73.1155 27.1104 73.504 27.1104 73.9832C27.1104 74.4625 27.4988 74.851 27.9781 74.851Z" fill="#383A47"/>
<path d="M27.9781 78.7451C28.4573 78.7451 28.8458 78.3566 28.8458 77.8774C28.8458 77.3981 28.4573 77.0096 27.9781 77.0096C27.4988 77.0096 27.1104 77.3981 27.1104 77.8774C27.1104 78.3566 27.4988 78.7451 27.9781 78.7451Z" fill="#383A47"/>
<path d="M31.8722 70.9515C32.3515 70.9515 32.74 70.563 32.74 70.0838C32.74 69.6046 32.3515 69.2161 31.8722 69.2161C31.393 69.2161 31.0045 69.6046 31.0045 70.0838C31.0045 70.563 31.393 70.9515 31.8722 70.9515Z" fill="#383A47"/>
<path d="M31.8722 74.851C32.3515 74.851 32.74 74.4625 32.74 73.9832C32.74 73.504 32.3515 73.1155 31.8722 73.1155C31.393 73.1155 31.0045 73.504 31.0045 73.9832C31.0045 74.4625 31.393 74.851 31.8722 74.851Z" fill="#383A47"/>
<path d="M31.8722 78.7451C32.3515 78.7451 32.74 78.3566 32.74 77.8774C32.74 77.3981 32.3515 77.0096 31.8722 77.0096C31.393 77.0096 31.0045 77.3981 31.0045 77.8774C31.0045 78.3566 31.393 78.7451 31.8722 78.7451Z" fill="#383A47"/>
<path d="M35.769 70.9515C36.2483 70.9515 36.6368 70.563 36.6368 70.0838C36.6368 69.6046 36.2483 69.2161 35.769 69.2161C35.2898 69.2161 34.9013 69.6046 34.9013 70.0838C34.9013 70.563 35.2898 70.9515 35.769 70.9515Z" fill="#383A47"/>
<path d="M35.769 74.851C36.2483 74.851 36.6368 74.4625 36.6368 73.9832C36.6368 73.504 36.2483 73.1155 35.769 73.1155C35.2898 73.1155 34.9013 73.504 34.9013 73.9832C34.9013 74.4625 35.2898 74.851 35.769 74.851Z" fill="#383A47"/>
<path d="M35.769 78.7451C36.2483 78.7451 36.6368 78.3566 36.6368 77.8774C36.6368 77.3981 36.2483 77.0096 35.769 77.0096C35.2898 77.0096 34.9013 77.3981 34.9013 77.8774C34.9013 78.3566 35.2898 78.7451 35.769 78.7451Z" fill="#383A47"/>
<path d="M39.6633 70.9515C40.1425 70.9515 40.531 70.563 40.531 70.0838C40.531 69.6046 40.1425 69.2161 39.6633 69.2161C39.184 69.2161 38.7955 69.6046 38.7955 70.0838C38.7955 70.563 39.184 70.9515 39.6633 70.9515Z" fill="#383A47"/>
<path d="M39.6633 74.851C40.1425 74.851 40.531 74.4625 40.531 73.9832C40.531 73.504 40.1425 73.1155 39.6633 73.1155C39.184 73.1155 38.7955 73.504 38.7955 73.9832C38.7955 74.4625 39.184 74.851 39.6633 74.851Z" fill="#383A47"/>
<path d="M39.6633 78.7451C40.1425 78.7451 40.531 78.3566 40.531 77.8774C40.531 77.3981 40.1425 77.0096 39.6633 77.0096C39.184 77.0096 38.7955 77.3981 38.7955 77.8774C38.7955 78.3566 39.184 78.7451 39.6633 78.7451Z" fill="#383A47"/>
<path d="M43.5575 70.9515C44.0367 70.9515 44.4252 70.563 44.4252 70.0838C44.4252 69.6046 44.0367 69.2161 43.5575 69.2161C43.0782 69.2161 42.6898 69.6046 42.6898 70.0838C42.6898 70.563 43.0782 70.9515 43.5575 70.9515Z" fill="#383A47"/>
<path d="M43.5575 74.851C44.0367 74.851 44.4252 74.4625 44.4252 73.9832C44.4252 73.504 44.0367 73.1155 43.5575 73.1155C43.0782 73.1155 42.6898 73.504 42.6898 73.9832C42.6898 74.4625 43.0782 74.851 43.5575 74.851Z" fill="#383A47"/>
<path d="M43.5575 78.7451C44.0367 78.7451 44.4252 78.3566 44.4252 77.8774C44.4252 77.3981 44.0367 77.0096 43.5575 77.0096C43.0782 77.0096 42.6898 77.3981 42.6898 77.8774C42.6898 78.3566 43.0782 78.7451 43.5575 78.7451Z" fill="#383A47"/>
<path d="M47.4517 70.9515C47.9309 70.9515 48.3194 70.563 48.3194 70.0838C48.3194 69.6046 47.9309 69.2161 47.4517 69.2161C46.9724 69.2161 46.5839 69.6046 46.5839 70.0838C46.5839 70.563 46.9724 70.9515 47.4517 70.9515Z" fill="#383A47"/>
<path d="M47.4517 74.851C47.9309 74.851 48.3194 74.4625 48.3194 73.9832C48.3194 73.504 47.9309 73.1155 47.4517 73.1155C46.9724 73.1155 46.5839 73.504 46.5839 73.9832C46.5839 74.4625 46.9724 74.851 47.4517 74.851Z" fill="#383A47"/>
<path d="M47.4517 78.7451C47.9309 78.7451 48.3194 78.3566 48.3194 77.8774C48.3194 77.3981 47.9309 77.0096 47.4517 77.0096C46.9724 77.0096 46.5839 77.3981 46.5839 77.8774C46.5839 78.3566 46.9724 78.7451 47.4517 78.7451Z" fill="#383A47"/>
<path d="M51.3484 70.9515C51.8277 70.9515 52.2162 70.563 52.2162 70.0838C52.2162 69.6046 51.8277 69.2161 51.3484 69.2161C50.8692 69.2161 50.4807 69.6046 50.4807 70.0838C50.4807 70.563 50.8692 70.9515 51.3484 70.9515Z" fill="#383A47"/>
<path d="M51.3484 74.851C51.8277 74.851 52.2162 74.4625 52.2162 73.9832C52.2162 73.504 51.8277 73.1155 51.3484 73.1155C50.8692 73.1155 50.4807 73.504 50.4807 73.9832C50.4807 74.4625 50.8692 74.851 51.3484 74.851Z" fill="#383A47"/>
<path d="M51.3484 78.7451C51.8277 78.7451 52.2162 78.3566 52.2162 77.8774C52.2162 77.3981 51.8277 77.0096 51.3484 77.0096C50.8692 77.0096 50.4807 77.3981 50.4807 77.8774C50.4807 78.3566 50.8692 78.7451 51.3484 78.7451Z" fill="#383A47"/>
<path d="M55.2427 70.9515C55.722 70.9515 56.1105 70.563 56.1105 70.0838C56.1105 69.6046 55.722 69.2161 55.2427 69.2161C54.7635 69.2161 54.375 69.6046 54.375 70.0838C54.375 70.563 54.7635 70.9515 55.2427 70.9515Z" fill="#383A47"/>
<path d="M55.2427 74.851C55.722 74.851 56.1105 74.4625 56.1105 73.9832C56.1105 73.504 55.722 73.1155 55.2427 73.1155C54.7635 73.1155 54.375 73.504 54.375 73.9832C54.375 74.4625 54.7635 74.851 55.2427 74.851Z" fill="#383A47"/>
<path d="M55.2427 78.7451C55.722 78.7451 56.1105 78.3566 56.1105 77.8774C56.1105 77.3981 55.722 77.0096 55.2427 77.0096C54.7635 77.0096 54.375 77.3981 54.375 77.8774C54.375 78.3566 54.7635 78.7451 55.2427 78.7451Z" fill="#383A47"/>
<path d="M59.1369 70.9515C59.6161 70.9515 60.0046 70.563 60.0046 70.0838C60.0046 69.6046 59.6161 69.2161 59.1369 69.2161C58.6577 69.2161 58.2692 69.6046 58.2692 70.0838C58.2692 70.563 58.6577 70.9515 59.1369 70.9515Z" fill="#383A47"/>
<path d="M59.1369 74.851C59.6161 74.851 60.0046 74.4625 60.0046 73.9832C60.0046 73.504 59.6161 73.1155 59.1369 73.1155C58.6577 73.1155 58.2692 73.504 58.2692 73.9832C58.2692 74.4625 58.6577 74.851 59.1369 74.851Z" fill="#383A47"/>
<path d="M59.1369 78.7451C59.6161 78.7451 60.0046 78.3566 60.0046 77.8774C60.0046 77.3981 59.6161 77.0096 59.1369 77.0096C58.6577 77.0096 58.2692 77.3981 58.2692 77.8774C58.2692 78.3566 58.6577 78.7451 59.1369 78.7451Z" fill="#383A47"/>
<path d="M63.0311 70.9515C63.5103 70.9515 63.8988 70.563 63.8988 70.0838C63.8988 69.6046 63.5103 69.2161 63.0311 69.2161C62.5518 69.2161 62.1633 69.6046 62.1633 70.0838C62.1633 70.563 62.5518 70.9515 63.0311 70.9515Z" fill="#383A47"/>
<path d="M63.0311 74.851C63.5103 74.851 63.8988 74.4625 63.8988 73.9832C63.8988 73.504 63.5103 73.1155 63.0311 73.1155C62.5518 73.1155 62.1633 73.504 62.1633 73.9832C62.1633 74.4625 62.5518 74.851 63.0311 74.851Z" fill="#383A47"/>
<path d="M63.0311 78.7451C63.5103 78.7451 63.8988 78.3566 63.8988 77.8774C63.8988 77.3981 63.5103 77.0096 63.0311 77.0096C62.5518 77.0096 62.1633 77.3981 62.1633 77.8774C62.1633 78.3566 62.5518 78.7451 63.0311 78.7451Z" fill="#383A47"/>
<path d="M66.9279 70.9515C67.4071 70.9515 67.7956 70.563 67.7956 70.0838C67.7956 69.6046 67.4071 69.2161 66.9279 69.2161C66.4486 69.2161 66.0601 69.6046 66.0601 70.0838C66.0601 70.563 66.4486 70.9515 66.9279 70.9515Z" fill="#383A47"/>
<path d="M66.9278 74.851C67.4071 74.851 67.7956 74.4625 67.7956 73.9832C67.7956 73.504 67.4071 73.1155 66.9278 73.1155C66.4486 73.1155 66.0601 73.504 66.0601 73.9832C66.0601 74.4625 66.4486 74.851 66.9278 74.851Z" fill="#383A47"/>
<path d="M66.9278 78.7451C67.4071 78.7451 67.7956 78.3566 67.7956 77.8774C67.7956 77.3981 67.4071 77.0096 66.9278 77.0096C66.4486 77.0096 66.0601 77.3981 66.0601 77.8774C66.0601 78.3566 66.4486 78.7451 66.9278 78.7451Z" fill="#383A47"/>
<path d="M70.8221 70.9515C71.3013 70.9515 71.6898 70.563 71.6898 70.0838C71.6898 69.6046 71.3013 69.2161 70.8221 69.2161C70.3428 69.2161 69.9543 69.6046 69.9543 70.0838C69.9543 70.563 70.3428 70.9515 70.8221 70.9515Z" fill="#383A47"/>
<path d="M70.8221 74.851C71.3013 74.851 71.6898 74.4625 71.6898 73.9832C71.6898 73.504 71.3013 73.1155 70.8221 73.1155C70.3428 73.1155 69.9543 73.504 69.9543 73.9832C69.9543 74.4625 70.3428 74.851 70.8221 74.851Z" fill="#383A47"/>
<path d="M70.8221 78.7451C71.3013 78.7451 71.6898 78.3566 71.6898 77.8774C71.6898 77.3981 71.3013 77.0096 70.8221 77.0096C70.3428 77.0096 69.9543 77.3981 69.9543 77.8774C69.9543 78.3566 70.3428 78.7451 70.8221 78.7451Z" fill="#383A47"/>
<path d="M74.7163 70.9515C75.1955 70.9515 75.5841 70.563 75.5841 70.0838C75.5841 69.6046 75.1955 69.2161 74.7163 69.2161C74.2371 69.2161 73.8486 69.6046 73.8486 70.0838C73.8486 70.563 74.2371 70.9515 74.7163 70.9515Z" fill="#383A47"/>
<path d="M74.7163 74.851C75.1955 74.851 75.5841 74.4625 75.5841 73.9832C75.5841 73.504 75.1955 73.1155 74.7163 73.1155C74.2371 73.1155 73.8486 73.504 73.8486 73.9832C73.8486 74.4625 74.2371 74.851 74.7163 74.851Z" fill="#383A47"/>
<path d="M74.7163 78.7451C75.1955 78.7451 75.5841 78.3566 75.5841 77.8774C75.5841 77.3981 75.1955 77.0096 74.7163 77.0096C74.2371 77.0096 73.8486 77.3981 73.8486 77.8774C73.8486 78.3566 74.2371 78.7451 74.7163 78.7451Z" fill="#383A47"/>
<path d="M78.6105 70.9515C79.0897 70.9515 79.4782 70.563 79.4782 70.0838C79.4782 69.6046 79.0897 69.2161 78.6105 69.2161C78.1312 69.2161 77.7427 69.6046 77.7427 70.0838C77.7427 70.563 78.1312 70.9515 78.6105 70.9515Z" fill="#383A47"/>
<path d="M78.6105 74.851C79.0897 74.851 79.4782 74.4625 79.4782 73.9832C79.4782 73.504 79.0897 73.1155 78.6105 73.1155C78.1312 73.1155 77.7427 73.504 77.7427 73.9832C77.7427 74.4625 78.1312 74.851 78.6105 74.851Z" fill="#383A47"/>
<path d="M78.6105 78.7451C79.0897 78.7451 79.4782 78.3566 79.4782 77.8774C79.4782 77.3981 79.0897 77.0096 78.6105 77.0096C78.1312 77.0096 77.7427 77.3981 77.7427 77.8774C77.7427 78.3566 78.1312 78.7451 78.6105 78.7451Z" fill="#383A47"/>
<path d="M82.5073 70.9515C82.9865 70.9515 83.375 70.563 83.375 70.0838C83.375 69.6046 82.9865 69.2161 82.5073 69.2161C82.028 69.2161 81.6395 69.6046 81.6395 70.0838C81.6395 70.563 82.028 70.9515 82.5073 70.9515Z" fill="#383A47"/>
<path d="M82.5073 74.851C82.9865 74.851 83.375 74.4625 83.375 73.9832C83.375 73.504 82.9865 73.1155 82.5073 73.1155C82.028 73.1155 81.6395 73.504 81.6395 73.9832C81.6395 74.4625 82.028 74.851 82.5073 74.851Z" fill="#383A47"/>
<path d="M82.5073 78.7451C82.9865 78.7451 83.375 78.3566 83.375 77.8774C83.375 77.3981 82.9865 77.0096 82.5073 77.0096C82.028 77.0096 81.6395 77.3981 81.6395 77.8774C81.6395 78.3566 82.028 78.7451 82.5073 78.7451Z" fill="#383A47"/>
<path d="M86.4015 70.9515C86.8808 70.9515 87.2693 70.563 87.2693 70.0838C87.2693 69.6046 86.8808 69.2161 86.4015 69.2161C85.9223 69.2161 85.5338 69.6046 85.5338 70.0838C85.5338 70.563 85.9223 70.9515 86.4015 70.9515Z" fill="#383A47"/>
<path d="M86.4015 74.851C86.8808 74.851 87.2693 74.4625 87.2693 73.9832C87.2693 73.504 86.8808 73.1155 86.4015 73.1155C85.9223 73.1155 85.5338 73.504 85.5338 73.9832C85.5338 74.4625 85.9223 74.851 86.4015 74.851Z" fill="#383A47"/>
<path d="M86.4015 78.7451C86.8808 78.7451 87.2693 78.3566 87.2693 77.8774C87.2693 77.3981 86.8808 77.0096 86.4015 77.0096C85.9223 77.0096 85.5338 77.3981 85.5338 77.8774C85.5338 78.3566 85.9223 78.7451 86.4015 78.7451Z" fill="#383A47"/>
<path d="M90.2957 70.9515C90.775 70.9515 91.1635 70.563 91.1635 70.0838C91.1635 69.6046 90.775 69.2161 90.2957 69.2161C89.8165 69.2161 89.428 69.6046 89.428 70.0838C89.428 70.563 89.8165 70.9515 90.2957 70.9515Z" fill="#383A47"/>
<path d="M90.2957 74.851C90.775 74.851 91.1635 74.4625 91.1635 73.9832C91.1635 73.504 90.775 73.1155 90.2957 73.1155C89.8165 73.1155 89.428 73.504 89.428 73.9832C89.428 74.4625 89.8165 74.851 90.2957 74.851Z" fill="#383A47"/>
<path d="M90.2957 78.7451C90.775 78.7451 91.1635 78.3566 91.1635 77.8774C91.1635 77.3981 90.775 77.0096 90.2957 77.0096C89.8165 77.0096 89.428 77.3981 89.428 77.8774C89.428 78.3566 89.8165 78.7451 90.2957 78.7451Z" fill="#383A47"/>
<path d="M94.1899 70.9515C94.6692 70.9515 95.0577 70.563 95.0577 70.0838C95.0577 69.6046 94.6692 69.2161 94.1899 69.2161C93.7107 69.2161 93.3222 69.6046 93.3222 70.0838C93.3222 70.563 93.7107 70.9515 94.1899 70.9515Z" fill="#383A47"/>
<path d="M94.1899 74.851C94.6692 74.851 95.0577 74.4625 95.0577 73.9832C95.0577 73.504 94.6692 73.1155 94.1899 73.1155C93.7107 73.1155 93.3222 73.504 93.3222 73.9832C93.3222 74.4625 93.7107 74.851 94.1899 74.851Z" fill="#383A47"/>
<path d="M94.1899 78.7451C94.6692 78.7451 95.0577 78.3566 95.0577 77.8774C95.0577 77.3981 94.6692 77.0096 94.1899 77.0096C93.7107 77.0096 93.3222 77.3981 93.3222 77.8774C93.3222 78.3566 93.7107 78.7451 94.1899 78.7451Z" fill="#383A47"/>
<path d="M98.0867 70.9515C98.5659 70.9515 98.9544 70.563 98.9544 70.0838C98.9544 69.6046 98.5659 69.2161 98.0867 69.2161C97.6074 69.2161 97.2189 69.6046 97.2189 70.0838C97.2189 70.563 97.6074 70.9515 98.0867 70.9515Z" fill="#383A47"/>
<path d="M98.0867 74.851C98.5659 74.851 98.9544 74.4625 98.9544 73.9832C98.9544 73.504 98.5659 73.1155 98.0867 73.1155C97.6074 73.1155 97.2189 73.504 97.2189 73.9832C97.2189 74.4625 97.6074 74.851 98.0867 74.851Z" fill="#383A47"/>
<path d="M98.0867 78.7451C98.5659 78.7451 98.9544 78.3566 98.9544 77.8774C98.9544 77.3981 98.5659 77.0096 98.0867 77.0096C97.6074 77.0096 97.2189 77.3981 97.2189 77.8774C97.2189 78.3566 97.6074 78.7451 98.0867 78.7451Z" fill="#383A47"/>
<path d="M101.981 70.9515C102.46 70.9515 102.849 70.563 102.849 70.0838C102.849 69.6046 102.46 69.2161 101.981 69.2161C101.502 69.2161 101.113 69.6046 101.113 70.0838C101.113 70.563 101.502 70.9515 101.981 70.9515Z" fill="#383A47"/>
<path d="M101.981 74.851C102.46 74.851 102.849 74.4625 102.849 73.9832C102.849 73.504 102.46 73.1155 101.981 73.1155C101.502 73.1155 101.113 73.504 101.113 73.9832C101.113 74.4625 101.502 74.851 101.981 74.851Z" fill="#383A47"/>
<path d="M101.981 78.7451C102.46 78.7451 102.849 78.3566 102.849 77.8774C102.849 77.3981 102.46 77.0096 101.981 77.0096C101.502 77.0096 101.113 77.3981 101.113 77.8774C101.113 78.3566 101.502 78.7451 101.981 78.7451Z" fill="#383A47"/>
<path d="M48.2472 44.3214C51.9288 44.3214 54.9134 41.3369 54.9134 37.6553C54.9134 33.9737 51.9288 30.9891 48.2472 30.9891C44.5656 30.9891 41.5811 33.9737 41.5811 37.6553C41.5811 41.3369 44.5656 44.3214 48.2472 44.3214Z" fill="#383A47"/>
<path d="M46.6127 39.6479C48.5535 39.6479 50.1267 38.0746 50.1267 36.1339C50.1267 34.1932 48.5535 32.6199 46.6127 32.6199C44.672 32.6199 43.0987 34.1932 43.0987 36.1339C43.0987 38.0746 44.672 39.6479 46.6127 39.6479Z" fill="white"/>
<path d="M50.279 42.4946C51.2315 42.4946 52.0037 41.7224 52.0037 40.7698C52.0037 39.8172 51.2315 39.045 50.279 39.045C49.3264 39.045 48.5542 39.8172 48.5542 40.7698C48.5542 41.7224 49.3264 42.4946 50.279 42.4946Z" fill="white"/>
<path d="M81.7518 44.3214C85.4334 44.3214 88.418 41.3369 88.418 37.6553C88.418 33.9737 85.4334 30.9891 81.7518 30.9891C78.0702 30.9891 75.0857 33.9737 75.0857 37.6553C75.0857 41.3369 78.0702 44.3214 81.7518 44.3214Z" fill="#383A47"/>
<path d="M80.1173 39.6479C82.058 39.6479 83.6313 38.0746 83.6313 36.1339C83.6313 34.1932 82.058 32.6199 80.1173 32.6199C78.1766 32.6199 76.6033 34.1932 76.6033 36.1339C76.6033 38.0746 78.1766 39.6479 80.1173 39.6479Z" fill="white"/>
<path d="M83.7836 42.4946C84.7362 42.4946 85.5084 41.7224 85.5084 40.7698C85.5084 39.8172 84.7362 39.045 83.7836 39.045C82.831 39.045 82.0588 39.8172 82.0588 40.7698C82.0588 41.7224 82.831 42.4946 83.7836 42.4946Z" fill="white"/>
<path d="M82.4022 51.2085C84.0607 51.2085 85.4051 49.864 85.4051 48.2056C85.4051 46.5471 84.0607 45.2026 82.4022 45.2026C80.7437 45.2026 79.3993 46.5471 79.3993 48.2056C79.3993 49.864 80.7437 51.2085 82.4022 51.2085Z" fill="#EEBED3"/>
<path d="M47.7529 51.2085C49.4114 51.2085 50.7558 49.864 50.7558 48.2056C50.7558 46.5471 49.4114 45.2026 47.7529 45.2026C46.0944 45.2026 44.75 46.5471 44.75 48.2056C44.75 49.864 46.0944 51.2085 47.7529 51.2085Z" fill="#EEBED3"/>
<path fill-rule="evenodd" clip-rule="evenodd" d="M53.2804 51.9058C52.1173 51.9058 51.1752 52.8484 51.1752 54.011C51.1752 61.4593 57.5509 67.534 64.9992 67.534C72.447 67.534 78.8232 61.4593 78.8232 54.011C78.8232 52.8484 77.8806 51.9058 76.718 51.9058H53.2804Z" fill="#383A47"/>
<path fill-rule="evenodd" clip-rule="evenodd" d="M54.2094 58.419C53.6125 57.0626 53.2792 55.5726 53.2792 54.0098H76.717C76.717 55.5726 76.3838 57.0626 75.7869 58.419H54.2094Z" fill="white"/>
</svg>
