<svg width="28" height="41" viewBox="0 0 28 41" fill="none" xmlns="http://www.w3.org/2000/svg">
<path d="M14 41C10.0667 41 6.75 39.65 4.05 36.95C1.35 34.25 0 30.9333 0 27V14C0 10.0667 1.35 6.75 4.05 4.05C6.75 1.35 10.0667 0 14 0C17.9333 0 21.25 1.35 23.95 4.05C26.65 6.75 28 10.0667 28 14V27C28 30.9333 26.65 34.25 23.95 36.95C21.25 39.65 17.9333 41 14 41ZM15.5 14H25C25 11.3 24.1167 8.9 22.35 6.8C20.5833 4.7 18.3 3.46667 15.5 3.1V14ZM3 14H12.5V3.1C9.7 3.46667 7.41667 4.7 5.65 6.8C3.88333 8.9 3 11.3 3 14ZM14 38C17.0333 38 19.625 36.925 21.775 34.775C23.925 32.625 25 30.0333 25 27V17H3V27C3 30.0333 4.075 32.625 6.225 34.775C8.375 36.925 10.9667 38 14 38Z" fill="#C4C4C4"/>
</svg>
